# xmcd
#
# Track frame offsets: 
#        150
#        10442
#        22240
#        33545
#        48370
#        59317
#        71590
#        84890
#        99165
#        111772
#        122207
#        136027
#        148327
#        161432
#        174597
#        186550
#
# Disc length: 2646 seconds
#
# Revision: 1
# Processed by: cddbd v1.5.2PL0 Copyright (c) Steve Scherf et al.
# Submitted via: ExactAudioCopy v0.90b4
#
DISCID=df0a5410
DTITLE=Various Artist - beiss doch gleich in jedes h‰ppchen
DYEAR=1998
DGENRE=Chanson
TTITLE0=Wencke Myhre - Beiss nicht gleich in jeden Apfel (1966)
TTITLE1=Gus Backus - Brauner B‰r und weiﬂe Taube (1960)
TTITLE2=Siw Malmquist - Liebeskummer lohnt sich nicht (1964)
TTITLE3=Bata Illic - Dich erkenn ich mit verbundenen Augen (1968)
TTITLE4=Manuela - Schuld war nur der Bossanova (1963)
TTITLE5=Vico Torriani - Kalkutta liegt am Ganges (1960)
TTITLE6=Dorthe - Sind sie der Graf von Luxemburg (1968)
TTITLE7=Erik Silvester - Zucker im Kaffee (1969)
TTITLE8=Peggy March - Mit 17 hat man noch Tr‰ume (1965)
TTITLE9=Billy Mo - Ich kauf mir lieber einen Tirolerhut (1963)
TTITLE10=Chris Howland - H‰mmerchen Polka (1961)
TTITLE11=Lolita - Weiﬂer Holunder (1962)
TTITLE12=Paul Kuhn - Es gibt kein Bier auf Hawai (1963)
TTITLE13=Gerhard Wendland - Tanze mit mir in den Morgen (1961)
TTITLE14=Rocco Granata - Arrividerci heiﬂt auf Wiedersehn (1969)
TTITLE15=Ted Herold - Moonlight (1960)
EXTD=
EXTT0=
EXTT1=
EXTT2=
EXTT3=
EXTT4=
EXTT5=
EXTT6=
EXTT7=
EXTT8=
EXTT9=
EXTT10=
EXTT11=
EXTT12=
EXTT13=
EXTT14=
EXTT15=
PLAYORDER=
